<svg xmlns="http://www.w3.org/2000/svg" viewBox="0 0 960 600" role="img" aria-labelledby="title desc">
  <title id="title">Result dashboard</title>
  <desc id="desc">A dashboard style illustration for FIRE calculation result.</desc>
  <defs>
    <linearGradient id="bg" x1="0" x2="1" y1="0" y2="1">
      <stop offset="0" stop-color="#eff6ff"/>
      <stop offset="1" stop-color="#ecfdf5"/>
    </linearGradient>
  </defs>
  <rect width="960" height="600" fill="url(#bg)"/>
  <rect x="118" y="92" width="724" height="416" rx="22" fill="#ffffff" stroke="#d9ded8" stroke-width="4"/>
  <rect x="118" y="92" width="724" height="74" rx="22" fill="#0f766e"/>
  <circle cx="168" cy="129" r="12" fill="#f5c542"/>
  <circle cx="208" cy="129" r="12" fill="#fff7ed"/>
  <circle cx="248" cy="129" r="12" fill="#c2410c"/>
  <g transform="translate(168 214)">
    <rect x="0" y="0" width="264" height="210" rx="12" fill="#f8fafc" stroke="#d9ded8" stroke-width="3"/>
    <path d="M52 164 A88 88 0 1 1 210 110" fill="none" stroke="#d9ded8" stroke-width="22" stroke-linecap="round"/>
    <path d="M52 164 A88 88 0 0 1 186 48" fill="none" stroke="#0f766e" stroke-width="22" stroke-linecap="round"/>
    <text x="86" y="134" font-family="Segoe UI, Arial, sans-serif" font-size="42" font-weight="800" fill="#0b4d47">62%</text>
    <text x="72" y="176" font-family="Segoe UI, Arial, sans-serif" font-size="18" font-weight="700" fill="#667085">readiness</text>
  </g>
  <g transform="translate(482 214)">
    <rect x="0" y="0" width="292" height="210" rx="12" fill="#f8fafc" stroke="#d9ded8" stroke-width="3"/>
    <rect x="34" y="142" width="36" height="40" rx="6" fill="#c2410c"/>
    <rect x="94" y="112" width="36" height="70" rx="6" fill="#f5c542"/>
    <rect x="154" y="78" width="36" height="104" rx="6" fill="#0f766e"/>
    <rect x="214" y="48" width="36" height="134" rx="6" fill="#1d4ed8"/>
    <path d="M34 62 C92 34 150 48 214 22" fill="none" stroke="#1f2933" stroke-width="7" stroke-linecap="round"/>
    <text x="34" y="198" font-family="Segoe UI, Arial, sans-serif" font-size="18" font-weight="700" fill="#667085">target range</text>
  </g>
  <text x="168" y="472" font-family="Segoe UI, Arial, sans-serif" font-size="28" font-weight="800" fill="#1f2933">Summary first, details in 1:1 review</text>
</svg>
